{"title":"Alpha.And.Omega.2010.DvDRip.H264.Feel-Free","uid":6062231,"size":733172081,"categoryP":"video","categoryS":"movies","magnet":"?xt=urn:btih:ef6b452ace65126826d5265a01dd74f94c5f1f06&amp;dn=Alpha.And.Omega.2010.DvDRip.H264.Feel-Free&amp;tr=udp%3A%2F%2Ftracker.openbittorrent.com%3A80&amp;tr=udp%3A%2F%2Fopen.demonii.com%3A1337&amp;tr=udp%3A%2F%2Ftracker.coppersurfer.tk%3A6969&amp;tr=udp%3A%2F%2Fexodus.desync.com%3A6969","seeders":0,"leechers":0,"uploader":"hiest","files":-1,"time":1293177284,"description":"Genre:Animation | Adventure | Comedy | Family\nLanguage:English\nIMDb:http://www.imdb.com/title/tt1213012/\nSource:DVD\n\n\nFormat : MPEG-4\nFormat profile : Base Media\nCodec ID : isom\nFile size : 697 MiB\nDuration : 1h 27mn\nOverall bit rate : 1 108 Kbps\n\n\nVideo\nCodec ID : avc1\nCodec ID/Info : Advanced Video Coding\nDuration : 1h 27mn\nBit rate mode : Variable\nBit rate : 941 Kbps\nWidth : 720 pixels\nHeight : 384 pixels\nDisplay aspect ratio : 1.875\nFrame rate mode : Constant\nFrame rate : 23.976 fps\nOriginal frame rate : 23.000 fps\nColor space : YUV\nChroma subsampling : 4:2:0\nBit depth : 8 bits\nScan type : Progressive\nBits/(Pixel*Frame) : 0.142\nStream size : 592 MiB (85%)\n\nAudio\nID : 1\nFormat : AAC\nFormat/Info : Advanced Audio Codec\nFormat version : Version 4\nFormat profile : LC\nCodec ID : 40\nDuration : 1h 27mn\nBit rate mode : Constant\nBit rate : 160 Kbps\nChannel(s) : 2 channels\nChannel positions : Front: L R\nSampling rate : 48.0 KHz\nStream size : 101 MiB (14%)\nLanguage : English\n\n\nPlot:\nTwo young wolves at opposite ends of their pack's social order are thrown together into a foreign land and need each other to return home, but love complicates everything\n\n\n\n\n\n\n================================== &lt;a href=&quot;\nhttp://thepiratebay.se/user/hiest&quot; rel=&quot;nofollow&quot; target=&quot;_NEW&quot;&gt;\nhttp://thepiratebay.se/user/hiest&lt;/a&gt;\n==================================\n\n\n\n\n\nScreenshots:\n &lt;a href=&quot;\nhttp://rapidhdd.com/images/953886vlcsnap-2010-12-24-08h45m34s77.png&quot; rel=&quot;nofollow&quot; target=&quot;_NEW&quot;&gt;\nhttp://rapidhdd.com/images/953886vlcsnap-2010-12-24-08h45m34s77.png&lt;/a&gt;\n &lt;a href=&quot;\nhttp://www.rapidhdd.com/images/89144vlcsnap-2010-12-24-08h46m37s195.png&quot; rel=&quot;nofollow&quot; target=&quot;_NEW&quot;&gt;\nhttp://www.rapidhdd.com/images/89144vlcsnap-2010-12-24-08h46m37s195.png&lt;/a&gt;\n &lt;a href=&quot;\nhttp://www.rapidhdd.com/images/815833vlcsnap-2010-12-24-08h46m08s168.png&quot; rel=&quot;nofollow&quot; target=&quot;_NEW&quot;&gt;\nhttp://www.rapidhdd.com/images/815833vlcsnap-2010-12-24-08h46m08s168.png&lt;/a&gt;\n &lt;a href=&quot;\nhttp://www.rapidhdd.com/images/567394vlcsnap-2010-12-24-08h47m31s234.png&quot; rel=&quot;nofollow&quot; target=&quot;_NEW&quot;&gt;\nhttp://www.rapidhdd.com/images/567394vlcsnap-2010-12-24-08h47m31s234.png&lt;/a&gt;\n &lt;a href=&quot;\nhttp://www.rapidhdd.com/images/45150vlcsnap-2010-12-24-08h46m14s234.png&quot; rel=&quot;nofollow&quot; target=&quot;_NEW&quot;&gt;\nhttp://www.rapidhdd.com/images/45150vlcsnap-2010-12-24-08h46m14s234.png&lt;/a&gt;","torrent":{"xt":"urn:btih:ef6b452ace65126826d5265a01dd74f94c5f1f06","amp;dn":"Alpha.And.Omega.2010.DvDRip.H264.Feel-Free","amp;tr":["udp%3A%2F%2Ftracker.openbittorrent.com%3A80","udp%3A%2F%2Fopen.demonii.com%3A1337","udp%3A%2F%2Ftracker.coppersurfer.tk%3A6969","udp%3A%2F%2Fexodus.desync.com%3A6969"],"infoHash":"ef6b452ace65126826d5265a01dd74f94c5f1f06","infoHashBuffer":{"type":"Buffer","data":[239,107,69,42,206,101,18,104,38,213,38,90,1,221,116,249,76,95,31,6]},"announce":[],"urlList":[]}}